<?xml version="1.0" encoding="UTF-8"?>
<svg xmlns="http://www.w3.org/2000/svg" width="180" height="180" viewBox="0 0 120 120" fill="none">
  <defs>
    <linearGradient id="f1" x1="0" y1="0" x2="60" y2="120" gradientUnits="userSpaceOnUse">
      <stop offset="0%" stop-color="#3B5BA5" stop-opacity="0.62"/>
      <stop offset="100%" stop-color="#1A2B5F" stop-opacity="0.38"/>
    </linearGradient>
    <linearGradient id="f2" x1="30" y1="0" x2="90" y2="120" gradientUnits="userSpaceOnUse">
      <stop offset="0%" stop-color="#2B4A8A" stop-opacity="0.72"/>
      <stop offset="100%" stop-color="#0E2040" stop-opacity="0.5"/>
    </linearGradient>
    <linearGradient id="f3" x1="60" y1="0" x2="120" y2="120" gradientUnits="userSpaceOnUse">
      <stop offset="0%" stop-color="#1E3A6E" stop-opacity="0.62"/>
      <stop offset="100%" stop-color="#0A1A3A" stop-opacity="0.38"/>
    </linearGradient>
    <linearGradient id="dg" x1="12" y1="60" x2="108" y2="60" gradientUnits="userSpaceOnUse">
      <stop offset="0%" stop-color="rgba(255,255,255,0.30)"/>
      <stop offset="42%" stop-color="rgba(255,255,255,0.65)"/>
      <stop offset="58%" stop-color="rgba(255,255,255,0.80)"/>
      <stop offset="100%" stop-color="rgba(255,255,255,0.28)"/>
    </linearGradient>
    <filter id="glow" x="-40%" y="-40%" width="180%" height="180%">
      <feGaussianBlur stdDeviation="3.5" result="blur"/>
      <feMerge><feMergeNode in="blur"/><feMergeNode in="SourceGraphic"/></feMerge>
    </filter>
    <clipPath id="c1"><path d="M 17.83,50.67 L 36.17,21.33 Q 42,12 47.83,21.33 L 66.17,50.67 Q 72,60 66.17,69.33 L 47.83,98.67 Q 42,108 36.17,98.67 L 17.83,69.33 Q 12,60 17.83,50.67 Z"/></clipPath>
    <clipPath id="c2"><path d="M 35.83,50.67 L 54.17,21.33 Q 60,12 65.83,21.33 L 84.17,50.67 Q 90,60 84.17,69.33 L 65.83,98.67 Q 60,108 54.17,98.67 L 35.83,69.33 Q 30,60 35.83,50.67 Z"/></clipPath>
    <clipPath id="c3"><path d="M 53.83,50.67 L 72.17,21.33 Q 78,12 83.83,21.33 L 102.17,50.67 Q 108,60 102.17,69.33 L 83.83,98.67 Q 78,108 72.17,98.67 L 53.83,69.33 Q 48,60 53.83,50.67 Z"/></clipPath>
    <mask id="ml"><rect x="0" y="0" width="51" height="120" fill="white"/></mask>
    <mask id="mc"><rect x="51" y="0" width="18" height="120" fill="white"/></mask>
    <mask id="mr"><rect x="69" y="0" width="51" height="120" fill="white"/></mask>
  </defs>
  <path d="M 17.83,50.67 L 36.17,21.33 Q 42,12 47.83,21.33 L 66.17,50.67 Q 72,60 66.17,69.33 L 47.83,98.67 Q 42,108 36.17,98.67 L 17.83,69.33 Q 12,60 17.83,50.67 Z" fill="url(#f1)" stroke="rgba(255,255,255,0.07)" stroke-width="1"/>
  <path d="M 35.83,50.67 L 54.17,21.33 Q 60,12 65.83,21.33 L 84.17,50.67 Q 90,60 84.17,69.33 L 65.83,98.67 Q 60,108 54.17,98.67 L 35.83,69.33 Q 30,60 35.83,50.67 Z" fill="url(#f2)" stroke="rgba(255,255,255,0.13)" stroke-width="1"/>
  <path d="M 53.83,50.67 L 72.17,21.33 Q 78,12 83.83,21.33 L 102.17,50.67 Q 108,60 102.17,69.33 L 83.83,98.67 Q 78,108 72.17,98.67 L 53.83,69.33 Q 48,60 53.83,50.67 Z" fill="url(#f3)" stroke="rgba(255,255,255,0.07)" stroke-width="1"/>
  <text clip-path="url(#c1)" mask="url(#ml)" x="60" y="60" text-anchor="middle" dominant-baseline="central" font-size="58" font-weight="800" font-family="'Inter','Helvetica Neue',Arial Black,sans-serif" fill="rgba(160,190,255,0.55)">$</text>
  <text clip-path="url(#c2)" mask="url(#mc)" x="60" y="60" text-anchor="middle" dominant-baseline="central" font-size="58" font-weight="800" font-family="'Inter','Helvetica Neue',Arial Black,sans-serif" fill="url(#dg)" filter="url(#glow)">$</text>
  <text clip-path="url(#c3)" mask="url(#mr)" x="60" y="60" text-anchor="middle" dominant-baseline="central" font-size="58" font-weight="800" font-family="'Inter','Helvetica Neue',Arial Black,sans-serif" fill="rgba(140,175,255,0.48)">$</text>
</svg>
